STARTFONT 2.1
FONT -FontForge-Pixel7x7-Regular-R-Normal--1-10-75-75-M-10-ISO8859-1
SIZE 1 75 75
FONTBOUNDINGBOX 1 4 0 -2
COMMENT "Generated by fontforge, http://fontforge.sourceforge.net"
COMMENT "Copyright (c) 2024, CTCL"
STARTPROPERTIES 33
FOUNDRY "FontForge"
FAMILY_NAME "Pixel7x7"
WEIGHT_NAME "Regular"
SLANT "R"
SETWIDTH_NAME "Normal"
ADD_STYLE_NAME ""
PIXEL_SIZE 1
POINT_SIZE 10
RESOLUTION_X 75
RESOLUTION_Y 75
SPACING "M"
AVERAGE_WIDTH 10
CHARSET_REGISTRY "ISO8859"
CHARSET_ENCODING "1"
FONTNAME_REGISTRY ""
CHARSET_COLLECTIONS "ISOLatin1Encoding"
FONT_NAME "Pixel-7x7-monospace"
FACE_NAME "Pixel 7x7 Monospace"
COPYRIGHT "Copyright (c) 2024, CTCL"
FONT_VERSION "001.000"
FONT_ASCENT 1
FONT_DESCENT 0
UNDERLINE_POSITION 0
UNDERLINE_THICKNESS 1
CAP_HEIGHT 1
RAW_ASCENT 777
RAW_DESCENT 222
NORM_SPACE 1
RELATIVE_WEIGHT 40
RELATIVE_SETWIDTH 30
FIGURE_WIDTH 1
AVG_LOWERCASE_WIDTH 10
AVG_UPPERCASE_WIDTH 10
ENDPROPERTIES
CHARS 193
STARTCHAR space
ENCODING 32
SWIDTH 666 0
DWIDTH 1 0
BBX 1 1 0 0
BITMAP
00
ENDCHAR
STARTCHAR exclam
ENCODING 33
SWIDTH 666 0
DWIDTH 1 0
BBX 1 1 0 -1
BITMAP
00
ENDCHAR
STARTCHAR quotedbl
ENCODING 34
SWIDTH 666 0
DWIDTH 1 0
BBX 1 1 0 1
BITMAP
00
ENDCHAR
STARTCHAR numbersign
ENCODING 35
SWIDTH 666 0
DWIDTH 1 0
BBX 1 1 0 0
BITMAP
80
ENDCHAR
STARTCHAR dollar
ENCODING 36
SWIDTH 666 0
DWIDTH 1 0
BBX 1 1 0 0
BITMAP
80
ENDCHAR
STARTCHAR percent
ENCODING 37
SWIDTH 666 0
DWIDTH 1 0
BBX 1 1 0 1
BITMAP
80
ENDCHAR
STARTCHAR ampersand
ENCODING 38
SWIDTH 666 0
DWIDTH 1 0
BBX 1 1 0 -1
BITMAP
00
ENDCHAR
STARTCHAR quotesingle
ENCODING 39
SWIDTH 666 0
DWIDTH 1 0
BBX 1 1 0 1
BITMAP
00
ENDCHAR
STARTCHAR parenleft
ENCODING 40
SWIDTH 666 0
DWIDTH 1 0
BBX 1 1 0 -1
BITMAP
00
ENDCHAR
STARTCHAR parenright
ENCODING 41
SWIDTH 666 0
DWIDTH 1 0
BBX 1 1 0 -1
BITMAP
00
ENDCHAR
STARTCHAR asterisk
ENCODING 42
SWIDTH 666 0
DWIDTH 1 0
BBX 1 1 0 1
BITMAP
00
ENDCHAR
STARTCHAR plus
ENCODING 43
SWIDTH 666 0
DWIDTH 1 0
BBX 1 1 0 0
BITMAP
00
ENDCHAR
STARTCHAR comma
ENCODING 44
SWIDTH 666 0
DWIDTH 1 0
BBX 1 1 0 -1
BITMAP
00
ENDCHAR
STARTCHAR hyphen
ENCODING 45
SWIDTH 666 0
DWIDTH 1 0
BBX 1 1 0 0
BITMAP
00
ENDCHAR
STARTCHAR period
ENCODING 46
SWIDTH 666 0
DWIDTH 1 0
BBX 1 1 0 -1
BITMAP
00
ENDCHAR
STARTCHAR slash
ENCODING 47
SWIDTH 666 0
DWIDTH 1 0
BBX 1 1 0 1
BITMAP
80
ENDCHAR
STARTCHAR zero
ENCODING 48
SWIDTH 666 0
DWIDTH 1 0
BBX 1 1 0 0
BITMAP
80
ENDCHAR
STARTCHAR one
ENCODING 49
SWIDTH 666 0
DWIDTH 1 0
BBX 1 1 0 0
BITMAP
80
ENDCHAR
STARTCHAR two
ENCODING 50
SWIDTH 666 0
DWIDTH 1 0
BBX 1 1 0 -1
BITMAP
00
ENDCHAR
STARTCHAR three
ENCODING 51
SWIDTH 666 0
DWIDTH 1 0
BBX 1 2 0 0
BITMAP
80
80
ENDCHAR
STARTCHAR four
ENCODING 52
SWIDTH 666 0
DWIDTH 1 0
BBX 1 3 0 -1
BITMAP
80
80
80
ENDCHAR
STARTCHAR five
ENCODING 53
SWIDTH 666 0
DWIDTH 1 0
BBX 1 1 0 0
BITMAP
80
ENDCHAR
STARTCHAR six
ENCODING 54
SWIDTH 666 0
DWIDTH 1 0
BBX 1 2 0 -1
BITMAP
80
80
ENDCHAR
STARTCHAR seven
ENCODING 55
SWIDTH 666 0
DWIDTH 1 0
BBX 1 1 0 1
BITMAP
80
ENDCHAR
STARTCHAR eight
ENCODING 56
SWIDTH 666 0
DWIDTH 1 0
BBX 1 1 0 -1
BITMAP
00
ENDCHAR
STARTCHAR nine
ENCODING 57
SWIDTH 666 0
DWIDTH 1 0
BBX 1 3 0 -1
BITMAP
80
80
80
ENDCHAR
STARTCHAR colon
ENCODING 58
SWIDTH 666 0
DWIDTH 1 0
BBX 1 1 0 0
BITMAP
00
ENDCHAR
STARTCHAR semicolon
ENCODING 59
SWIDTH 666 0
DWIDTH 1 0
BBX 1 1 0 -1
BITMAP
00
ENDCHAR
STARTCHAR less
ENCODING 60
SWIDTH 666 0
DWIDTH 1 0
BBX 1 1 0 -1
BITMAP
00
ENDCHAR
STARTCHAR equal
ENCODING 61
SWIDTH 666 0
DWIDTH 1 0
BBX 1 1 0 0
BITMAP
00
ENDCHAR
STARTCHAR greater
ENCODING 62
SWIDTH 666 0
DWIDTH 1 0
BBX 1 1 0 -1
BITMAP
00
ENDCHAR
STARTCHAR question
ENCODING 63
SWIDTH 666 0
DWIDTH 1 0
BBX 1 2 0 0
BITMAP
80
80
ENDCHAR
STARTCHAR at
ENCODING 64
SWIDTH 666 0
DWIDTH 1 0
BBX 1 1 0 0
BITMAP
80
ENDCHAR
STARTCHAR A
ENCODING 65
SWIDTH 666 0
DWIDTH 1 0
BBX 1 2 0 -1
BITMAP
80
80
ENDCHAR
STARTCHAR B
ENCODING 66
SWIDTH 666 0
DWIDTH 1 0
BBX 1 2 0 0
BITMAP
80
80
ENDCHAR
STARTCHAR C
ENCODING 67
SWIDTH 666 0
DWIDTH 1 0
BBX 1 1 0 0
BITMAP
80
ENDCHAR
STARTCHAR D
ENCODING 68
SWIDTH 666 0
DWIDTH 1 0
BBX 1 2 0 0
BITMAP
80
80
ENDCHAR
STARTCHAR E
ENCODING 69
SWIDTH 666 0
DWIDTH 1 0
BBX 1 1 0 0
BITMAP
80
ENDCHAR
STARTCHAR F
ENCODING 70
SWIDTH 666 0
DWIDTH 1 0
BBX 1 1 0 0
BITMAP
80
ENDCHAR
STARTCHAR G
ENCODING 71
SWIDTH 666 0
DWIDTH 1 0
BBX 1 2 0 -1
BITMAP
80
80
ENDCHAR
STARTCHAR H
ENCODING 72
SWIDTH 666 0
DWIDTH 1 0
BBX 1 3 0 -1
BITMAP
80
80
80
ENDCHAR
STARTCHAR I
ENCODING 73
SWIDTH 666 0
DWIDTH 1 0
BBX 1 1 0 0
BITMAP
80
ENDCHAR
STARTCHAR J
ENCODING 74
SWIDTH 666 0
DWIDTH 1 0
BBX 1 2 0 0
BITMAP
80
80
ENDCHAR
STARTCHAR K
ENCODING 75
SWIDTH 666 0
DWIDTH 1 0
BBX 1 3 0 -1
BITMAP
80
80
80
ENDCHAR
STARTCHAR L
ENCODING 76
SWIDTH 666 0
DWIDTH 1 0
BBX 1 1 0 0
BITMAP
80
ENDCHAR
STARTCHAR M
ENCODING 77
SWIDTH 666 0
DWIDTH 1 0
BBX 1 3 0 -1
BITMAP
80
80
80
ENDCHAR
STARTCHAR N
ENCODING 78
SWIDTH 666 0
DWIDTH 1 0
BBX 1 3 0 -1
BITMAP
80
80
80
ENDCHAR
STARTCHAR O
ENCODING 79
SWIDTH 666 0
DWIDTH 1 0
BBX 1 1 0 0
BITMAP
80
ENDCHAR
STARTCHAR P
ENCODING 80
SWIDTH 666 0
DWIDTH 1 0
BBX 1 2 0 0
BITMAP
80
80
ENDCHAR
STARTCHAR Q
ENCODING 81
SWIDTH 666 0
DWIDTH 1 0
BBX 1 2 0 0
BITMAP
80
80
ENDCHAR
STARTCHAR R
ENCODING 82
SWIDTH 666 0
DWIDTH 1 0
BBX 1 2 0 0
BITMAP
80
80
ENDCHAR
STARTCHAR S
ENCODING 83
SWIDTH 666 0
DWIDTH 1 0
BBX 1 2 0 -1
BITMAP
80
80
ENDCHAR
STARTCHAR T
ENCODING 84
SWIDTH 666 0
DWIDTH 1 0
BBX 1 1 0 0
BITMAP
80
ENDCHAR
STARTCHAR U
ENCODING 85
SWIDTH 666 0
DWIDTH 1 0
BBX 1 2 0 0
BITMAP
80
80
ENDCHAR
STARTCHAR V
ENCODING 86
SWIDTH 666 0
DWIDTH 1 0
BBX 1 2 0 0
BITMAP
80
80
ENDCHAR
STARTCHAR W
ENCODING 87
SWIDTH 666 0
DWIDTH 1 0
BBX 1 3 0 -1
BITMAP
80
80
80
ENDCHAR
STARTCHAR X
ENCODING 88
SWIDTH 666 0
DWIDTH 1 0
BBX 1 1 0 1
BITMAP
80
ENDCHAR
STARTCHAR Y
ENCODING 89
SWIDTH 666 0
DWIDTH 1 0
BBX 1 1 0 -1
BITMAP
00
ENDCHAR
STARTCHAR Z
ENCODING 90
SWIDTH 666 0
DWIDTH 1 0
BBX 1 1 0 1
BITMAP
80
ENDCHAR
STARTCHAR bracketleft
ENCODING 91
SWIDTH 666 0
DWIDTH 1 0
BBX 1 1 0 0
BITMAP
80
ENDCHAR
STARTCHAR backslash
ENCODING 92
SWIDTH 666 0
DWIDTH 1 0
BBX 1 1 0 -1
BITMAP
00
ENDCHAR
STARTCHAR bracketright
ENCODING 93
SWIDTH 666 0
DWIDTH 1 0
BBX 1 1 0 0
BITMAP
80
ENDCHAR
STARTCHAR asciicircum
ENCODING 94
SWIDTH 666 0
DWIDTH 1 0
BBX 1 1 0 0
BITMAP
00
ENDCHAR
STARTCHAR underscore
ENCODING 95
SWIDTH 666 0
DWIDTH 1 0
BBX 1 1 0 -1
BITMAP
00
ENDCHAR
STARTCHAR grave
ENCODING 96
SWIDTH 666 0
DWIDTH 1 0
BBX 1 1 0 1
BITMAP
00
ENDCHAR
STARTCHAR a
ENCODING 97
SWIDTH 666 0
DWIDTH 1 0
BBX 1 1 0 -1
BITMAP
80
ENDCHAR
STARTCHAR b
ENCODING 98
SWIDTH 666 0
DWIDTH 1 0
BBX 1 1 0 0
BITMAP
80
ENDCHAR
STARTCHAR c
ENCODING 99
SWIDTH 666 0
DWIDTH 1 0
BBX 1 1 0 -1
BITMAP
00
ENDCHAR
STARTCHAR d
ENCODING 100
SWIDTH 666 0
DWIDTH 1 0
BBX 1 2 0 0
BITMAP
80
80
ENDCHAR
STARTCHAR e
ENCODING 101
SWIDTH 666 0
DWIDTH 1 0
BBX 1 1 0 -1
BITMAP
80
ENDCHAR
STARTCHAR f
ENCODING 102
SWIDTH 666 0
DWIDTH 1 0
BBX 1 1 0 -1
BITMAP
00
ENDCHAR
STARTCHAR g
ENCODING 103
SWIDTH 666 0
DWIDTH 1 0
BBX 1 1 0 -1
BITMAP
00
ENDCHAR
STARTCHAR h
ENCODING 104
SWIDTH 666 0
DWIDTH 1 0
BBX 1 2 0 -1
BITMAP
80
80
ENDCHAR
STARTCHAR i
ENCODING 105
SWIDTH 666 0
DWIDTH 1 0
BBX 1 1 0 -1
BITMAP
00
ENDCHAR
STARTCHAR j
ENCODING 106
SWIDTH 666 0
DWIDTH 1 0
BBX 1 1 0 -1
BITMAP
80
ENDCHAR
STARTCHAR k
ENCODING 107
SWIDTH 666 0
DWIDTH 1 0
BBX 1 1 0 0
BITMAP
80
ENDCHAR
STARTCHAR l
ENCODING 108
SWIDTH 666 0
DWIDTH 1 0
BBX 1 1 0 0
BITMAP
80
ENDCHAR
STARTCHAR m
ENCODING 109
SWIDTH 666 0
DWIDTH 1 0
BBX 1 1 0 -1
BITMAP
00
ENDCHAR
STARTCHAR n
ENCODING 110
SWIDTH 666 0
DWIDTH 1 0
BBX 1 1 0 -1
BITMAP
00
ENDCHAR
STARTCHAR o
ENCODING 111
SWIDTH 666 0
DWIDTH 1 0
BBX 1 1 0 -1
BITMAP
00
ENDCHAR
STARTCHAR p
ENCODING 112
SWIDTH 666 0
DWIDTH 1 0
BBX 1 1 0 -1
BITMAP
80
ENDCHAR
STARTCHAR q
ENCODING 113
SWIDTH 666 0
DWIDTH 1 0
BBX 1 1 0 -1
BITMAP
80
ENDCHAR
STARTCHAR r
ENCODING 114
SWIDTH 666 0
DWIDTH 1 0
BBX 1 1 0 -2
BITMAP
00
ENDCHAR
STARTCHAR s
ENCODING 115
SWIDTH 666 0
DWIDTH 1 0
BBX 1 1 0 -1
BITMAP
80
ENDCHAR
STARTCHAR t
ENCODING 116
SWIDTH 666 0
DWIDTH 1 0
BBX 1 1 0 0
BITMAP
80
ENDCHAR
STARTCHAR u
ENCODING 117
SWIDTH 666 0
DWIDTH 1 0
BBX 1 1 0 -1
BITMAP
80
ENDCHAR
STARTCHAR v
ENCODING 118
SWIDTH 666 0
DWIDTH 1 0
BBX 1 1 0 -1
BITMAP
00
ENDCHAR
STARTCHAR w
ENCODING 119
SWIDTH 666 0
DWIDTH 1 0
BBX 1 1 0 -1
BITMAP
80
ENDCHAR
STARTCHAR x
ENCODING 120
SWIDTH 666 0
DWIDTH 1 0
BBX 1 1 0 -1
BITMAP
00
ENDCHAR
STARTCHAR y
ENCODING 121
SWIDTH 666 0
DWIDTH 1 0
BBX 1 1 0 -1
BITMAP
80
ENDCHAR
STARTCHAR z
ENCODING 122
SWIDTH 666 0
DWIDTH 1 0
BBX 1 1 0 -1
BITMAP
00
ENDCHAR
STARTCHAR braceleft
ENCODING 123
SWIDTH 666 0
DWIDTH 1 0
BBX 1 1 0 -1
BITMAP
00
ENDCHAR
STARTCHAR bar
ENCODING 124
SWIDTH 666 0
DWIDTH 1 0
BBX 1 1 0 0
BITMAP
80
ENDCHAR
STARTCHAR braceright
ENCODING 125
SWIDTH 666 0
DWIDTH 1 0
BBX 1 1 0 -1
BITMAP
00
ENDCHAR
STARTCHAR asciitilde
ENCODING 126
SWIDTH 666 0
DWIDTH 1 0
BBX 1 1 0 0
BITMAP
00
ENDCHAR
STARTCHAR uni007F
ENCODING 127
SWIDTH 666 0
DWIDTH 1 0
BBX 1 1 0 0
BITMAP
00
ENDCHAR
STARTCHAR uni0090
ENCODING 144
SWIDTH 666 0
DWIDTH 1 0
BBX 1 1 0 0
BITMAP
00
ENDCHAR
STARTCHAR uni00A0
ENCODING 160
SWIDTH 666 0
DWIDTH 1 0
BBX 1 1 0 0
BITMAP
00
ENDCHAR
STARTCHAR exclamdown
ENCODING 161
SWIDTH 666 0
DWIDTH 1 0
BBX 1 1 0 0
BITMAP
00
ENDCHAR
STARTCHAR cent
ENCODING 162
SWIDTH 666 0
DWIDTH 1 0
BBX 1 1 0 0
BITMAP
00
ENDCHAR
STARTCHAR sterling
ENCODING 163
SWIDTH 666 0
DWIDTH 1 0
BBX 1 1 0 0
BITMAP
00
ENDCHAR
STARTCHAR currency
ENCODING 164
SWIDTH 666 0
DWIDTH 1 0
BBX 1 1 0 0
BITMAP
00
ENDCHAR
STARTCHAR yen
ENCODING 165
SWIDTH 666 0
DWIDTH 1 0
BBX 1 1 0 0
BITMAP
00
ENDCHAR
STARTCHAR brokenbar
ENCODING 166
SWIDTH 666 0
DWIDTH 1 0
BBX 1 1 0 0
BITMAP
00
ENDCHAR
STARTCHAR section
ENCODING 167
SWIDTH 1000 0
DWIDTH 1 0
BBX 1 1 0 0
BITMAP
00
ENDCHAR
STARTCHAR dieresis
ENCODING 168
SWIDTH 666 0
DWIDTH 1 0
BBX 1 1 0 0
BITMAP
00
ENDCHAR
STARTCHAR copyright
ENCODING 169
SWIDTH 666 0
DWIDTH 1 0
BBX 1 1 0 0
BITMAP
00
ENDCHAR
STARTCHAR ordfeminine
ENCODING 170
SWIDTH 666 0
DWIDTH 1 0
BBX 1 1 0 0
BITMAP
00
ENDCHAR
STARTCHAR guillemotleft
ENCODING 171
SWIDTH 666 0
DWIDTH 1 0
BBX 1 1 0 0
BITMAP
00
ENDCHAR
STARTCHAR logicalnot
ENCODING 172
SWIDTH 666 0
DWIDTH 1 0
BBX 1 1 0 0
BITMAP
00
ENDCHAR
STARTCHAR uni00AD
ENCODING 173
SWIDTH 666 0
DWIDTH 1 0
BBX 1 1 0 0
BITMAP
00
ENDCHAR
STARTCHAR registered
ENCODING 174
SWIDTH 666 0
DWIDTH 1 0
BBX 1 1 0 0
BITMAP
00
ENDCHAR
STARTCHAR macron
ENCODING 175
SWIDTH 666 0
DWIDTH 1 0
BBX 1 1 0 0
BITMAP
00
ENDCHAR
STARTCHAR degree
ENCODING 176
SWIDTH 666 0
DWIDTH 1 0
BBX 1 1 0 0
BITMAP
00
ENDCHAR
STARTCHAR plusminus
ENCODING 177
SWIDTH 666 0
DWIDTH 1 0
BBX 1 1 0 0
BITMAP
00
ENDCHAR
STARTCHAR uni00B2
ENCODING 178
SWIDTH 666 0
DWIDTH 1 0
BBX 1 1 0 1
BITMAP
00
ENDCHAR
STARTCHAR uni00B3
ENCODING 179
SWIDTH 666 0
DWIDTH 1 0
BBX 1 1 0 1
BITMAP
00
ENDCHAR
STARTCHAR acute
ENCODING 180
SWIDTH 666 0
DWIDTH 1 0
BBX 1 1 0 0
BITMAP
00
ENDCHAR
STARTCHAR mu
ENCODING 181
SWIDTH 666 0
DWIDTH 1 0
BBX 1 1 0 -1
BITMAP
00
ENDCHAR
STARTCHAR paragraph
ENCODING 182
SWIDTH 666 0
DWIDTH 1 0
BBX 1 1 0 0
BITMAP
00
ENDCHAR
STARTCHAR periodcentered
ENCODING 183
SWIDTH 666 0
DWIDTH 1 0
BBX 1 1 0 0
BITMAP
00
ENDCHAR
STARTCHAR cedilla
ENCODING 184
SWIDTH 666 0
DWIDTH 1 0
BBX 1 1 0 0
BITMAP
00
ENDCHAR
STARTCHAR uni00B9
ENCODING 185
SWIDTH 666 0
DWIDTH 1 0
BBX 1 1 0 1
BITMAP
00
ENDCHAR
STARTCHAR ordmasculine
ENCODING 186
SWIDTH 666 0
DWIDTH 1 0
BBX 1 1 0 0
BITMAP
00
ENDCHAR
STARTCHAR guillemotright
ENCODING 187
SWIDTH 666 0
DWIDTH 1 0
BBX 1 1 0 0
BITMAP
00
ENDCHAR
STARTCHAR onequarter
ENCODING 188
SWIDTH 666 0
DWIDTH 1 0
BBX 1 1 0 0
BITMAP
00
ENDCHAR
STARTCHAR onehalf
ENCODING 189
SWIDTH 666 0
DWIDTH 1 0
BBX 1 1 0 0
BITMAP
00
ENDCHAR
STARTCHAR threequarters
ENCODING 190
SWIDTH 666 0
DWIDTH 1 0
BBX 1 1 0 0
BITMAP
00
ENDCHAR
STARTCHAR questiondown
ENCODING 191
SWIDTH 666 0
DWIDTH 1 0
BBX 1 1 0 0
BITMAP
00
ENDCHAR
STARTCHAR Agrave
ENCODING 192
SWIDTH 666 0
DWIDTH 1 0
BBX 1 1 0 0
BITMAP
00
ENDCHAR
STARTCHAR Aacute
ENCODING 193
SWIDTH 666 0
DWIDTH 1 0
BBX 1 1 0 0
BITMAP
00
ENDCHAR
STARTCHAR Acircumflex
ENCODING 194
SWIDTH 666 0
DWIDTH 1 0
BBX 1 1 0 0
BITMAP
00
ENDCHAR
STARTCHAR Atilde
ENCODING 195
SWIDTH 666 0
DWIDTH 1 0
BBX 1 1 0 0
BITMAP
00
ENDCHAR
STARTCHAR Adieresis
ENCODING 196
SWIDTH 666 0
DWIDTH 1 0
BBX 1 1 0 0
BITMAP
00
ENDCHAR
STARTCHAR Aring
ENCODING 197
SWIDTH 666 0
DWIDTH 1 0
BBX 1 1 0 0
BITMAP
00
ENDCHAR
STARTCHAR AE
ENCODING 198
SWIDTH 666 0
DWIDTH 1 0
BBX 1 1 0 0
BITMAP
00
ENDCHAR
STARTCHAR Ccedilla
ENCODING 199
SWIDTH 666 0
DWIDTH 1 0
BBX 1 1 0 0
BITMAP
00
ENDCHAR
STARTCHAR Egrave
ENCODING 200
SWIDTH 666 0
DWIDTH 1 0
BBX 1 1 0 0
BITMAP
00
ENDCHAR
STARTCHAR Eacute
ENCODING 201
SWIDTH 666 0
DWIDTH 1 0
BBX 1 1 0 0
BITMAP
00
ENDCHAR
STARTCHAR Ecircumflex
ENCODING 202
SWIDTH 666 0
DWIDTH 1 0
BBX 1 1 0 0
BITMAP
00
ENDCHAR
STARTCHAR Edieresis
ENCODING 203
SWIDTH 666 0
DWIDTH 1 0
BBX 1 1 0 0
BITMAP
00
ENDCHAR
STARTCHAR Igrave
ENCODING 204
SWIDTH 666 0
DWIDTH 1 0
BBX 1 1 0 0
BITMAP
00
ENDCHAR
STARTCHAR Iacute
ENCODING 205
SWIDTH 666 0
DWIDTH 1 0
BBX 1 1 0 0
BITMAP
00
ENDCHAR
STARTCHAR Icircumflex
ENCODING 206
SWIDTH 666 0
DWIDTH 1 0
BBX 1 1 0 0
BITMAP
00
ENDCHAR
STARTCHAR Idieresis
ENCODING 207
SWIDTH 666 0
DWIDTH 1 0
BBX 1 1 0 0
BITMAP
00
ENDCHAR
STARTCHAR Eth
ENCODING 208
SWIDTH 666 0
DWIDTH 1 0
BBX 1 1 0 0
BITMAP
00
ENDCHAR
STARTCHAR Ntilde
ENCODING 209
SWIDTH 666 0
DWIDTH 1 0
BBX 1 1 0 0
BITMAP
00
ENDCHAR
STARTCHAR Ograve
ENCODING 210
SWIDTH 666 0
DWIDTH 1 0
BBX 1 1 0 0
BITMAP
00
ENDCHAR
STARTCHAR Oacute
ENCODING 211
SWIDTH 666 0
DWIDTH 1 0
BBX 1 1 0 0
BITMAP
00
ENDCHAR
STARTCHAR Ocircumflex
ENCODING 212
SWIDTH 666 0
DWIDTH 1 0
BBX 1 1 0 0
BITMAP
00
ENDCHAR
STARTCHAR Otilde
ENCODING 213
SWIDTH 666 0
DWIDTH 1 0
BBX 1 1 0 0
BITMAP
00
ENDCHAR
STARTCHAR Odieresis
ENCODING 214
SWIDTH 666 0
DWIDTH 1 0
BBX 1 1 0 0
BITMAP
00
ENDCHAR
STARTCHAR multiply
ENCODING 215
SWIDTH 666 0
DWIDTH 1 0
BBX 1 1 0 0
BITMAP
00
ENDCHAR
STARTCHAR Oslash
ENCODING 216
SWIDTH 666 0
DWIDTH 1 0
BBX 1 1 0 0
BITMAP
00
ENDCHAR
STARTCHAR Ugrave
ENCODING 217
SWIDTH 666 0
DWIDTH 1 0
BBX 1 1 0 0
BITMAP
00
ENDCHAR
STARTCHAR Uacute
ENCODING 218
SWIDTH 666 0
DWIDTH 1 0
BBX 1 1 0 0
BITMAP
00
ENDCHAR
STARTCHAR Ucircumflex
ENCODING 219
SWIDTH 666 0
DWIDTH 1 0
BBX 1 1 0 0
BITMAP
00
ENDCHAR
STARTCHAR Udieresis
ENCODING 220
SWIDTH 666 0
DWIDTH 1 0
BBX 1 1 0 0
BITMAP
00
ENDCHAR
STARTCHAR Yacute
ENCODING 221
SWIDTH 666 0
DWIDTH 1 0
BBX 1 1 0 0
BITMAP
00
ENDCHAR
STARTCHAR Thorn
ENCODING 222
SWIDTH 666 0
DWIDTH 1 0
BBX 1 1 0 0
BITMAP
00
ENDCHAR
STARTCHAR germandbls
ENCODING 223
SWIDTH 666 0
DWIDTH 1 0
BBX 1 1 0 0
BITMAP
00
ENDCHAR
STARTCHAR agrave
ENCODING 224
SWIDTH 666 0
DWIDTH 1 0
BBX 1 1 0 0
BITMAP
00
ENDCHAR
STARTCHAR aacute
ENCODING 225
SWIDTH 666 0
DWIDTH 1 0
BBX 1 1 0 0
BITMAP
00
ENDCHAR
STARTCHAR acircumflex
ENCODING 226
SWIDTH 666 0
DWIDTH 1 0
BBX 1 1 0 0
BITMAP
00
ENDCHAR
STARTCHAR atilde
ENCODING 227
SWIDTH 666 0
DWIDTH 1 0
BBX 1 1 0 0
BITMAP
00
ENDCHAR
STARTCHAR adieresis
ENCODING 228
SWIDTH 666 0
DWIDTH 1 0
BBX 1 1 0 0
BITMAP
00
ENDCHAR
STARTCHAR aring
ENCODING 229
SWIDTH 666 0
DWIDTH 1 0
BBX 1 1 0 0
BITMAP
00
ENDCHAR
STARTCHAR ae
ENCODING 230
SWIDTH 666 0
DWIDTH 1 0
BBX 1 1 0 0
BITMAP
00
ENDCHAR
STARTCHAR ccedilla
ENCODING 231
SWIDTH 666 0
DWIDTH 1 0
BBX 1 1 0 0
BITMAP
00
ENDCHAR
STARTCHAR egrave
ENCODING 232
SWIDTH 666 0
DWIDTH 1 0
BBX 1 1 0 0
BITMAP
00
ENDCHAR
STARTCHAR eacute
ENCODING 233
SWIDTH 666 0
DWIDTH 1 0
BBX 1 1 0 0
BITMAP
00
ENDCHAR
STARTCHAR ecircumflex
ENCODING 234
SWIDTH 666 0
DWIDTH 1 0
BBX 1 1 0 0
BITMAP
00
ENDCHAR
STARTCHAR edieresis
ENCODING 235
SWIDTH 666 0
DWIDTH 1 0
BBX 1 1 0 0
BITMAP
00
ENDCHAR
STARTCHAR igrave
ENCODING 236
SWIDTH 666 0
DWIDTH 1 0
BBX 1 1 0 0
BITMAP
00
ENDCHAR
STARTCHAR iacute
ENCODING 237
SWIDTH 666 0
DWIDTH 1 0
BBX 1 1 0 0
BITMAP
00
ENDCHAR
STARTCHAR icircumflex
ENCODING 238
SWIDTH 666 0
DWIDTH 1 0
BBX 1 1 0 0
BITMAP
00
ENDCHAR
STARTCHAR idieresis
ENCODING 239
SWIDTH 666 0
DWIDTH 1 0
BBX 1 1 0 0
BITMAP
00
ENDCHAR
STARTCHAR eth
ENCODING 240
SWIDTH 666 0
DWIDTH 1 0
BBX 1 1 0 0
BITMAP
00
ENDCHAR
STARTCHAR ntilde
ENCODING 241
SWIDTH 666 0
DWIDTH 1 0
BBX 1 1 0 0
BITMAP
00
ENDCHAR
STARTCHAR ograve
ENCODING 242
SWIDTH 666 0
DWIDTH 1 0
BBX 1 1 0 0
BITMAP
00
ENDCHAR
STARTCHAR oacute
ENCODING 243
SWIDTH 666 0
DWIDTH 1 0
BBX 1 1 0 0
BITMAP
00
ENDCHAR
STARTCHAR ocircumflex
ENCODING 244
SWIDTH 666 0
DWIDTH 1 0
BBX 1 1 0 0
BITMAP
00
ENDCHAR
STARTCHAR otilde
ENCODING 245
SWIDTH 666 0
DWIDTH 1 0
BBX 1 1 0 0
BITMAP
00
ENDCHAR
STARTCHAR odieresis
ENCODING 246
SWIDTH 666 0
DWIDTH 1 0
BBX 1 1 0 0
BITMAP
00
ENDCHAR
STARTCHAR divide
ENCODING 247
SWIDTH 666 0
DWIDTH 1 0
BBX 1 1 0 0
BITMAP
00
ENDCHAR
STARTCHAR oslash
ENCODING 248
SWIDTH 666 0
DWIDTH 1 0
BBX 1 1 0 0
BITMAP
00
ENDCHAR
STARTCHAR ugrave
ENCODING 249
SWIDTH 666 0
DWIDTH 1 0
BBX 1 1 0 0
BITMAP
00
ENDCHAR
STARTCHAR uacute
ENCODING 250
SWIDTH 666 0
DWIDTH 1 0
BBX 1 1 0 0
BITMAP
00
ENDCHAR
STARTCHAR ucircumflex
ENCODING 251
SWIDTH 666 0
DWIDTH 1 0
BBX 1 1 0 0
BITMAP
00
ENDCHAR
STARTCHAR udieresis
ENCODING 252
SWIDTH 666 0
DWIDTH 1 0
BBX 1 1 0 0
BITMAP
00
ENDCHAR
STARTCHAR yacute
ENCODING 253
SWIDTH 666 0
DWIDTH 1 0
BBX 1 1 0 0
BITMAP
00
ENDCHAR
STARTCHAR thorn
ENCODING 254
SWIDTH 666 0
DWIDTH 1 0
BBX 1 1 0 0
BITMAP
00
ENDCHAR
STARTCHAR ydieresis
ENCODING 255
SWIDTH 666 0
DWIDTH 1 0
BBX 1 1 0 0
BITMAP
00
ENDCHAR
ENDFONT
